<?xml version="1.0" encoding="UTF-8" standalone="no"?>
<!DOCTYPE svg PUBLIC "-//W3C//DTD SVG 1.1//EN" "http://www.w3.org/Graphics/SVG/1.1/DTD/svg11.dtd">
<svg width="100%" height="100%" viewBox="0 0 138805 35784" version="1.1" xmlns="http://www.w3.org/2000/svg" xmlns:xlink="http://www.w3.org/1999/xlink" xml:space="preserve" xmlns:serif="http://www.serif.com/" style="fill-rule:evenodd;clip-rule:evenodd;stroke-linejoin:round;stroke-miterlimit:2;">
    <g transform="matrix(4.16667,0,0,4.16667,0,0)">
        <g transform="matrix(17.1485,0,0,16.8497,-2651.93,-3743.64)">
            <g>
                <g id="logo" transform="matrix(1,0,0,1,47.435,-53.948)">
                    <g transform="matrix(0.491127,0,0,0.491127,118.002,648.176)">
                        <text x="0px" y="0px" style="font-family:'InspireRegular', 'Inspire';font-size:840.259px;fill:rgb(54,174,124);">CLOW</text>
                    </g>
                    <g transform="matrix(0.491127,0,0,0.491127,1405.05,704.376)">
                        <text x="0px" y="0px" style="font-family:'InspireRegular', 'Inspire';font-size:848.388px;fill:rgb(24,116,152);">ECT</text>
                    </g>
                    <g transform="matrix(0.491127,0,0,0.598949,1109.6,726.92)">
                        <text x="0px" y="0px" style="font-family:'InspireRegular', 'Inspire';font-size:1018.07px;fill:rgb(249,217,35);">N</text>
                    </g>
                    <g transform="matrix(0.945102,-0.0109888,0.0116264,0.999932,231.785,-1498.67)">
                        <path d="M647.83,2235.06C636.389,2268.32 607.136,2290.37 574.446,2290.37C531.209,2290.37 496.106,2252.24 496.106,2205.28C496.106,2158.32 531.209,2120.2 574.446,2120.2C607.136,2120.2 636.389,2142.24 647.83,2175.5L986.338,2175.5L986.338,2235.06L647.83,2235.06Z" style="fill:rgb(249,217,35);"/>
                    </g>
                    <g transform="matrix(1.47031,0,0,1.63068,-179.261,-2672.19)">
                        <ellipse cx="664.822" cy="2068.04" rx="51.964" ry="52.457" style="fill:rgb(235,83,83);"/>
                    </g>
                </g>
                <g transform="matrix(0.311101,0.00881811,-0.00908938,0.332144,436.476,172.069)">
                    <path d="M3016.86,431.194L3016.86,180.407L3873.39,157.667L3951.65,63.272L4291.81,305.8L3951.65,548.329L3881.43,433.058L3016.86,431.194Z" style="fill:rgb(249,217,35);"/>
                </g>
            </g>
        </g>
    </g>
</svg>
